<svg width="477.000000" height="491.000000" viewBox="0 0 477 491" fill="none" xmlns="http://www.w3.org/2000/svg" xmlns:xlink="http://www.w3.org/1999/xlink">
	<desc>
			Created with Pixso.
	</desc>
	<defs/>
	<path id="path" d="M0 245.38L0 490.76L238.38 490.76L476.76 490.76L476.76 245.38L476.76 0L238.38 0L0 0L0 245.38ZM332.24 108.02C330.66 129.78 315.2 149.91 296.95 154.22C294.53 154.8 275.63 155.28 250.39 155.28C208.86 155.28 207.84 155.28 205.42 157.29L202.99 159.21L202.99 189.88L202.99 220.45L249.55 220.45L296.11 220.45L296.11 246.81L296.11 273.17L249.09 273.17L202.06 273.17L202.06 332.6L202.06 392.03L176.92 392.03L151.78 392.03L151.78 261.86C151.78 118.47 151.5 126.52 157.46 116.74C161.56 110.13 168.17 105.43 176.92 102.94C180.09 102.08 199.36 101.79 256.91 101.69L332.71 101.6L332.24 108.02Z" fill="#FF8400" fill-opacity="1.000000" fill-rule="nonzero"/>
</svg>
